HIERARCHY
ROOT Hips
{
    OFFSET   0.000000   0.000000   0.000000
    CHANNELS 6 Xposition Yposition Zposition Zrotation Xrotation Yrotation
    JOINT Chest
    {
        OFFSET   0.000000   8.007230   0.000000
        CHANNELS 3 Zrotation Xrotation Yrotation
        JOINT Chest2
        {
            OFFSET   0.000000  22.077100   0.000000
            CHANNELS 3 Zrotation Xrotation Yrotation
            JOINT Neck
            {
                OFFSET   0.000000  23.254800  -0.000021
                CHANNELS 3 Zrotation Xrotation Yrotation
                JOINT Head
                {
                    OFFSET   0.000000  14.370000   1.956610
                    CHANNELS 3 Zrotation Xrotation Yrotation
                    End Site
                    {
                        OFFSET   0.000000  19.566000   0.000000
                    }
                }
            }
            JOINT LeftCollar
            {
                OFFSET   3.911900  19.017000  -0.467063
                CHANNELS 3 Zrotation Xrotation Yrotation
                JOINT LeftShoulder
                {
                    OFFSET  10.383700   0.000000   0.000000
                    CHANNELS 3 Zrotation Xrotation Yrotation
                    JOINT LeftElbow
                    {
                        OFFSET  26.662100   0.001529   0.000325
                        CHANNELS 3 Zrotation Xrotation Yrotation
                        JOINT LeftWrist
                        {
                            OFFSET  28.869000  -0.000011  -0.000096
                            CHANNELS 3 Zrotation Xrotation Yrotation
                            JOINT LeftFinger0
                            {
                                OFFSET   2.044650  -2.323460   3.252850
                                CHANNELS 3 Zrotation Xrotation Yrotation
                                JOINT LeftFinger01
                                {
                                    OFFSET   3.088130   0.000000   0.000000
                                    CHANNELS 3 Zrotation Xrotation Yrotation
                                    JOINT LeftFinger02
                                    {
                                        OFFSET   2.639460   0.000000   0.000000
                                        CHANNELS 3 Zrotation Xrotation Yrotation
                                        End Site
                                        {
                                            OFFSET   2.582190   0.000000   0.000000
                                        }
                                    }
                                }
                            }
                            JOINT LeftFinger1
                            {
                                OFFSET   8.364480   0.000000   3.252850
                                CHANNELS 3 Zrotation Xrotation Yrotation
                                JOINT LeftFinger11
                                {
                                    OFFSET   4.646930   0.000000   0.000000
                                    CHANNELS 3 Zrotation Xrotation Yrotation
                                    JOINT LeftFinger12
                                    {
                                        OFFSET   2.323460   0.000000   0.000000
                                        CHANNELS 3 Zrotation Xrotation Yrotation
                                        End Site
                                        {
                                            OFFSET   2.273050   0.000000   0.000000
                                        }
                                    }
                                }
                            }
                            JOINT LeftFinger2
                            {
                                OFFSET   8.364480   0.000016   1.078090
                                CHANNELS 3 Zrotation Xrotation Yrotation
                                JOINT LeftFinger21
                                {
                                    OFFSET   5.111620   0.000000   0.000000
                                    CHANNELS 3 Zrotation Xrotation Yrotation
                                    JOINT LeftFinger22
                                    {
                                        OFFSET   2.788160   0.000017   0.000000
                                        CHANNELS 3 Zrotation Xrotation Yrotation
                                        End Site
                                        {
                                            OFFSET   2.727660   0.000000   0.000000
                                        }
                                    }
                                }
                            }
                            JOINT LeftFinger3
                            {
                                OFFSET   7.899780   0.000015  -1.078090
                                CHANNELS 3 Zrotation Xrotation Yrotation
                                JOINT LeftFinger31
                                {
                                    OFFSET   4.646920   0.000000   0.000000
                                    CHANNELS 3 Zrotation Xrotation Yrotation
                                    JOINT LeftFinger32
                                    {
                                        OFFSET   2.323470   0.000000   0.000000
                                        CHANNELS 3 Zrotation Xrotation Yrotation
                                        End Site
                                        {
                                            OFFSET   2.273050   0.000000   0.000000
                                        }
                                    }
                                }
                            }
                            JOINT LeftFinger4
                            {
                                OFFSET   7.435090   0.000000  -3.252850
                                CHANNELS 3 Zrotation Xrotation Yrotation
                                JOINT LeftFinger41
                                {
                                    OFFSET   3.717550   0.000000   0.000000
                                    CHANNELS 3 Zrotation Xrotation Yrotation
                                    JOINT LeftFinger42
                                    {
                                        OFFSET   1.858760   0.000000   0.000000
                                        CHANNELS 3 Zrotation Xrotation Yrotation
                                        End Site
                                        {
                                            OFFSET   1.818440   0.000000   0.000000
                                        }
                                    }
                                }
                            }
                        }
                    }
                }
            }
            JOINT RightCollar
            {
                OFFSET  -3.911900  19.017000  -0.467062
                CHANNELS 3 Zrotation Xrotation Yrotation
                JOINT RightShoulder
                {
                    OFFSET -10.383700   0.000015   0.000000
                    CHANNELS 3 Zrotation Xrotation Yrotation
                    JOINT RightElbow
                    {
                        OFFSET -26.662100   0.001341   0.000385
                        CHANNELS 3 Zrotation Xrotation Yrotation
                        JOINT RightWrist
                        {
                            OFFSET -28.869000   0.000025  -0.000080
                            CHANNELS 3 Zrotation Xrotation Yrotation
                            JOINT RightFinger0
                            {
                                OFFSET  -2.044650  -2.323490   3.252850
                                CHANNELS 3 Zrotation Xrotation Yrotation
                                JOINT RightFinger01
                                {
                                    OFFSET  -3.088130   0.000000   0.000000
                                    CHANNELS 3 Zrotation Xrotation Yrotation
                                    JOINT RightFinger02
                                    {
                                        OFFSET  -2.639460   0.000000   0.000000
                                        CHANNELS 3 Zrotation Xrotation Yrotation
                                        End Site
                                        {
                                            OFFSET  -2.582190   0.000000   0.000000
                                        }
                                    }
                                }
                            }
                            JOINT RightFinger1
                            {
                                OFFSET  -8.364480   0.000000   3.252850
                                CHANNELS 3 Zrotation Xrotation Yrotation
                                JOINT RightFinger11
                                {
                                    OFFSET  -4.646930   0.000000   0.000000
                                    CHANNELS 3 Zrotation Xrotation Yrotation
                                    JOINT RightFinger12
                                    {
                                        OFFSET  -2.323470   0.000000   0.000000
                                        CHANNELS 3 Zrotation Xrotation Yrotation
                                        End Site
                                        {
                                            OFFSET  -2.273050   0.000000   0.000000
                                        }
                                    }
                                }
                            }
                            JOINT RightFinger2
                            {
                                OFFSET  -8.364480   0.000000   1.078090
                                CHANNELS 3 Zrotation Xrotation Yrotation
                                JOINT RightFinger21
                                {
                                    OFFSET  -5.111610   0.000000   0.000000
                                    CHANNELS 3 Zrotation Xrotation Yrotation
                                    JOINT RightFinger22
                                    {
                                        OFFSET  -2.788160   0.000000   0.000000
                                        CHANNELS 3 Zrotation Xrotation Yrotation
                                        End Site
                                        {
                                            OFFSET  -2.727660   0.000000   0.000000
                                        }
                                    }
                                }
                            }
                            JOINT RightFinger3
                            {
                                OFFSET  -7.899780   0.000000  -1.078090
                                CHANNELS 3 Zrotation Xrotation Yrotation
                                JOINT RightFinger31
                                {
                                    OFFSET  -4.646920   0.000000   0.000000
                                    CHANNELS 3 Zrotation Xrotation Yrotation
                                    JOINT RightFinger32
                                    {
                                        OFFSET  -2.323470   0.000000   0.000000
                                        CHANNELS 3 Zrotation Xrotation Yrotation
                                        End Site
                                        {
                                            OFFSET  -2.273050   0.000000   0.000000
                                        }
                                    }
                                }
                            }
                            JOINT RightFinger4
                            {
                                OFFSET  -7.435090   0.000000  -3.252850
                                CHANNELS 3 Zrotation Xrotation Yrotation
                                JOINT RightFinger41
                                {
                                    OFFSET  -3.717550   0.000000   0.000000
                                    CHANNELS 3 Zrotation Xrotation Yrotation
                                    JOINT RightFinger42
                                    {
                                        OFFSET  -1.858770   0.000000   0.000000
                                        CHANNELS 3 Zrotation Xrotation Yrotation
                                        End Site
                                        {
                                            OFFSET  -1.818440   0.000000   0.000000
                                        }
                                    }
                                }
                            }
                        }
                    }
                }
            }
        }
    }
    JOINT LeftHip
    {
        OFFSET   9.783010   0.000000   0.000000
        CHANNELS 3 Zrotation Xrotation Yrotation
        JOINT LeftKnee
        {
            OFFSET   0.000070 -41.789100   0.000028
            CHANNELS 3 Zrotation Xrotation Yrotation
            JOINT LeftAnkle
            {
                OFFSET   0.000087 -41.133200  -0.000100
                CHANNELS 3 Zrotation Xrotation Yrotation
                JOINT LeftToe
                {
                    OFFSET   0.000000  -6.358960  14.674500
                    CHANNELS 3 Zrotation Xrotation Yrotation
                    End Site
                    {
                        OFFSET   0.000000   0.000000   3.913200
                    }
                }
            }
        }
    }
    JOINT RightHip
    {
        OFFSET  -9.783020   0.000000   0.000000
        CHANNELS 3 Zrotation Xrotation Yrotation
        JOINT RightKnee
        {
            OFFSET   0.000044 -41.789100  -0.000870
            CHANNELS 3 Zrotation Xrotation Yrotation
            JOINT RightAnkle
            {
                OFFSET  -0.000090 -41.133200  -0.000245
                CHANNELS 3 Zrotation Xrotation Yrotation
                JOINT RightToe
                {
                    OFFSET   0.000000  -6.358960  14.674500
                    CHANNELS 3 Zrotation Xrotation Yrotation
                    End Site
                    {
                        OFFSET   0.000000   0.000000   3.913200
                    }
                }
            }
        }
    }
}
MOTION
Frames: 4
Frame Time:   0.016667
 -0.880197  89.765900   3.705590  -0.565831  -8.487760  -1.886330   0.007783   5.832560   0.991689  -0.087210  11.664400   1.998250   0.781736  -0.495949   0.003782   1.284490  -1.005450   5.791610  -6.051120  -1.304340   4.226210 -72.189900   7.705280  -5.694090  -2.322550 -12.544600 -15.853900   8.708200   4.899540   3.749100  48.606100  41.897600 -78.177600 -26.288100   0.001567   0.003251  -8.144070  -0.004193   0.001995 -31.528900   4.318620  -6.996440 -26.012300  -0.002295   0.002234 -18.208600  -0.003990   0.008756 -28.478300  -1.089490   2.007980 -36.116700  -0.005551   0.003904 -24.053700  -0.007084   0.001533 -26.175100  -1.800870   3.659590 -26.232400  -0.002954   0.002165 -17.470700  -0.003289   0.007127 -25.680300  -3.202810   6.629020 -38.798200  -0.003967   0.003362 -25.839600  -0.008678   0.012133  11.838500   1.391930   6.903550  68.905200   2.496580   1.161050  -0.086966 -17.485000  17.881800 -14.053700 -14.126500  -1.833910 -36.699600  29.162700  62.059100  31.900600   0.009399  -0.005730  10.950300  -0.000059  -0.004458  28.692600   1.452430   2.650860  23.502100   0.004839  -0.002655  16.451500   0.001518  -0.010825  27.714100  -0.913140  -1.737530  30.371600  -0.007114  -0.000355  20.227500  -0.002015  -0.000193  28.031900  -2.591690  -4.854490  32.959800   0.000244   0.000000  21.951200  -0.001920   0.000000  30.897600  -4.428580  -7.353620  46.771000  -0.000758   0.002150  31.149500  -0.000918   0.000852   0.701857  10.811900   2.762050  -0.370744   3.293340  12.016100  -4.840330  -6.419650   6.144780   0.000000   0.000000   0.000000   2.909460  11.941000  -9.149280   0.627271   1.583370  -6.758070 -10.045100  -2.153500   2.829090   0.000000   0.000000  -0.000000
 -0.870194  89.765800   3.697400  -0.571018  -8.523560  -1.889620   0.012635   5.856760   0.990809  -0.077746  11.712900   1.996510   0.774153  -0.502913   0.003785   1.271990  -1.019350   5.837370  -6.078170  -1.330070   4.265150 -72.196000   7.709560  -5.632820  -2.360080 -12.562100 -16.130900   8.611500   4.774870   3.923100  48.710400  41.940200 -78.212500 -26.215100   0.001569   0.003240  -8.107560  -0.004190   0.001987 -31.499200   4.324490  -7.009650 -25.991000  -0.002276   0.002194 -18.193700  -0.003993   0.008753 -28.476500  -1.077900   1.986460 -36.104000  -0.005548   0.003881 -24.045200  -0.007076   0.001527 -26.162400  -1.789840   3.638470 -26.220500  -0.002959   0.002153 -17.462800  -0.003269   0.007110 -25.673600  -3.192430   6.609670 -38.786900  -0.003952   0.003336 -25.832100  -0.008684   0.012150  11.831800   1.374740   6.881570  69.042200   2.324220   1.164140  -0.193571 -17.800300  18.243900 -13.942800 -14.482800  -2.010390 -36.900200  29.278600  61.942900  31.765100   0.009394  -0.005726  10.882600  -0.000085  -0.004435  28.591600   1.458420   2.670000  23.419700   0.004837  -0.002606  16.393800   0.001520  -0.010807  27.683100  -0.906099  -1.724410  30.201500  -0.007114  -0.000308  20.114200  -0.001978  -0.000161  28.008700  -2.588400  -4.849400  32.780700   0.000318   0.000062  21.831900  -0.001884   0.000035  30.810800  -4.425090  -7.363010  46.636500  -0.000713   0.002185  31.059900  -0.000868   0.000869   0.697107  10.836700   2.762320  -0.369850   3.301100  12.016000  -4.831900  -6.419010   6.145980   0.000000   0.000000   0.000000   2.909240  11.971700  -9.139400   0.627781   1.588210  -6.774780 -10.040000  -2.155020   2.836410  -0.000000   0.000000   0.000000
 -0.851477  89.765700   3.683770  -0.579971  -8.584730  -1.898330   0.020994   5.899150   0.984422  -0.061029  11.797800   1.982560   0.760310  -0.513613   0.003801   1.249200  -1.040790   5.946050  -6.117360  -1.367430   4.353090 -72.213500   7.714940  -5.485770  -2.445130 -12.557300 -16.753400   8.509890   4.649800   4.167020  49.214200  42.171500 -78.487200 -26.014300   0.001576   0.003217  -8.007160  -0.004185   0.001964 -31.420900   4.365610  -7.102140 -25.932000  -0.002232   0.002106 -18.152400  -0.004002   0.008744 -28.469300  -0.996738   1.835840 -36.015100  -0.005540   0.003826 -23.986100  -0.007053   0.001513 -26.107300  -1.712560   3.490630 -26.162300  -0.002969   0.002126 -17.424100  -0.003218   0.007068 -25.626300  -3.119760   6.474230 -38.708100  -0.003916   0.003276 -25.779500  -0.008700   0.012193  11.809700   1.347590   6.841370  69.274300   2.038660   1.186580  -0.376402 -18.257200  18.912500 -13.857200 -14.838000  -2.277080 -37.218100  29.537700  61.819400  31.532300   0.009382  -0.005704  10.766200  -0.000112  -0.004387  28.432600   1.500380   2.770000  23.291400   0.004830  -0.002493  16.304000   0.001523  -0.010767  27.639400  -0.856809  -1.632530  29.959100  -0.007114  -0.000201  19.952800  -0.001894  -0.000094  27.973300  -2.565400  -4.813800  32.526600   0.000391   0.000183  21.662700  -0.001794   0.000105  30.667500  -4.401230  -7.372190  46.423600  -0.000613   0.002258  30.918100  -0.000754   0.000900   0.688251  10.881000   2.762810  -0.369594   3.311860  12.015900  -4.817830  -6.418010   6.151060  -0.000000   0.000000   0.000000   2.905730  12.022400  -9.122780   0.629064   1.597750  -6.798930 -10.032200  -2.156530   2.848560   0.000000   0.000000   0.000000
 -0.831990  89.765700   3.673270  -0.587189  -8.633990  -1.910330   0.028959   5.936230   0.962569  -0.043363  11.872100   1.937420   0.746137  -0.521598   0.003844   1.225520  -1.057110   6.102430  -6.134740  -1.387150   4.474790 -72.302000   7.642080  -5.276020  -2.549150 -12.456900 -17.574300   8.607400   4.953960   4.274120  50.315000  42.823800 -79.526800 -25.641400   0.001592   0.003191  -7.820680  -0.004178   0.001917 -31.247100   4.542250  -7.442230 -25.802700  -0.002166   0.001982 -18.061900  -0.004016   0.008732 -28.449700  -0.764231   1.406590 -35.748600  -0.005529   0.003748 -23.808600  -0.007016   0.001490 -25.971500  -1.505910   3.085750 -26.015400  -0.002984   0.002083 -17.326300  -0.003141   0.007003 -25.471300  -2.911600   6.083200 -38.445200  -0.003866   0.003191 -25.604400  -0.008722   0.012256  11.765800   1.330600   6.794610  69.472500   1.803150   1.271830  -0.529314 -18.535300  19.577500 -14.144900 -14.809000  -2.461200 -37.717100  30.345700  62.323800  31.278300   0.009366  -0.005635  10.639200  -0.000048  -0.004324  28.302800   1.624150   3.017980  23.189800   0.004816  -0.002327  16.232900   0.001524  -0.010708  27.618800  -0.701359  -1.336670  29.840300  -0.007117  -0.000042  19.873700  -0.001773  -0.000007  27.963100  -2.398150  -4.503120  32.405800   0.000222   0.000326  21.582200  -0.001652   0.000193  30.558700  -4.228910  -7.119050  46.244400  -0.000477   0.002357  30.798800  -0.000591   0.000937   0.678539  10.918700   2.763210  -0.370675   3.316060  12.016400  -4.806760  -6.417240   6.162010   0.000000   0.000000  -0.000000   2.895510  12.061000  -9.109240   0.631803   1.606300  -6.811950 -10.028000  -2.152820   2.858040   0.000000   0.000000   0.000000
